<svg width="364" height="233" viewBox="0 0 364 233" fill="none" xmlns="http://www.w3.org/2000/svg">
<g clip-path="url(#clip0_38_271)">
<path d="M334.64 141.255C334.803 141.255 334.966 141.255 334.966 141.255C335.782 141.092 336.434 140.113 336.108 139.298C335.945 138.645 331.867 121.845 321.754 104.881C308.216 82.2085 289.947 70.6275 269.395 71.1169C250.964 71.6062 234.489 75.684 219.972 79.1094C195.342 85.1445 174.138 90.3641 151.302 77.4783C141.842 72.0956 132.707 65.2449 122.921 57.9048C94.8653 37.1896 59.9594 11.0917 -1.86011 7.01385C-70.8565 2.60983 -115.223 15.1695 -140.179 26.5873C-167.419 38.9838 -178.184 52.359 -178.674 52.8483C-179.163 53.5008 -179.163 54.6426 -178.347 55.1319C-177.695 55.6212 -176.553 55.6212 -176.064 54.8057C-175.901 54.6426 -165.298 41.4305 -138.548 29.3602C-113.918 18.2686 -70.204 5.87207 -2.02319 10.2761C58.8176 14.1908 91.9294 38.8207 121.126 60.6777C130.913 68.0178 140.374 75.0316 149.834 80.4143C173.648 93.9526 195.505 88.5699 220.788 82.5347C235.794 78.7832 251.453 75.0316 269.558 74.5422C270.048 74.5422 270.537 74.5422 271.026 74.5422C317.187 74.5422 333.009 139.461 333.172 140.113C333.172 140.766 333.824 141.255 334.64 141.255Z" fill="white" fill-opacity="0.15"/>
<path d="M334.64 141.255C334.803 141.255 334.966 141.255 335.13 141.092C335.945 140.766 336.434 139.95 336.108 138.971C335.945 138.319 330.726 122.986 319.471 107.98C304.465 87.9174 285.707 78.4569 265.318 80.5773C247.212 82.3716 231.39 87.5911 217.363 91.9952C194.201 99.3352 174.138 105.86 151.955 96.2361C147.877 94.4418 144.778 92.9738 142.005 91.3427C135.48 87.7543 128.793 83.3502 121.453 78.62C92.7451 59.8621 56.8604 36.5371 -0.22879 35.0691C-48.0206 33.7642 -87.983 41.5935 -119.464 58.0679C-149.15 73.7266 -161.057 92.1583 -163.83 97.3779C-164.319 98.1934 -163.993 99.1721 -163.178 99.4983C-162.362 99.9877 -161.383 99.6614 -161.057 98.8459C-157.469 92.3214 -122.4 35.0691 -0.391876 38.3313C55.7187 39.7993 91.114 62.7981 119.495 81.3929C126.836 86.1231 133.686 90.5272 140.211 94.2787C143.147 95.9099 146.409 97.541 150.487 99.3352C173.812 109.448 194.364 102.924 218.178 95.2574C232.695 90.5272 247.702 85.7969 265.481 84.0027C312.131 79.2724 332.846 139.624 333.009 140.276C333.335 140.929 333.825 141.255 334.64 141.255Z" fill="white" fill-opacity="0.15"/>
<path d="M-147.519 144.191C-147.03 144.191 -146.378 143.865 -146.051 143.375C-127.457 109.448 -86.6785 68.507 1.40198 66.5497C52.9454 65.4079 90.4612 86.7756 117.864 102.271C126.509 107.165 133.849 111.405 140.863 114.505C144.614 116.136 148.366 117.441 151.465 118.256C174.138 125.107 193.385 117.278 215.568 108.306C229.596 102.597 244.276 96.7254 261.729 93.4632C307.563 85.1445 333.009 139.787 333.172 140.276C333.498 141.092 334.477 141.418 335.292 141.092C336.108 140.766 336.434 139.787 336.108 138.971C335.782 138.319 329.42 124.454 317.024 111.405C300.549 93.9525 281.139 86.6125 261.076 90.364C243.297 93.6263 227.965 99.8245 214.263 105.37C192.569 114.178 173.811 121.682 152.281 115.32C149.181 114.342 145.593 113.2 142.005 111.732C135.154 108.633 127.814 104.555 119.332 99.6614C91.603 84.0027 53.5978 62.4719 1.23889 63.6137C-88.4727 65.571 -129.903 107.328 -148.987 142.071C-149.477 142.886 -149.15 143.865 -148.335 144.191C-148.172 144.191 -147.846 144.191 -147.519 144.191Z" fill="white" fill-opacity="0.15"/>
<path d="M-132.676 188.557C-132.024 188.557 -131.534 188.231 -131.208 187.742C-99.5642 130.326 -55.6871 99.8245 3.03323 94.768C50.0095 90.6902 88.0146 109.448 115.744 123.15C125.53 128.043 134.012 132.121 141.189 134.567C144.451 135.709 147.877 136.525 152.281 137.177C174.301 140.766 192.08 131.794 212.795 121.518C226.497 114.668 240.524 107.654 257.814 103.087C303.159 91.0165 333.009 140.113 333.335 140.603C333.824 141.418 334.803 141.581 335.619 141.092C336.434 140.603 336.597 139.624 336.108 138.808C335.782 138.319 328.279 125.759 314.74 114.668C296.798 99.8245 276.735 94.768 256.999 99.9876C239.383 104.718 224.539 112.058 211.327 118.746C191.101 128.858 173.812 137.667 152.77 134.078C148.692 133.426 145.267 132.61 142.168 131.631C135.154 129.348 126.835 125.107 117.049 120.377C88.9933 106.512 50.4988 87.428 2.70703 91.6689C-57.3182 96.8885 -102.011 127.88 -134.144 186.274C-134.633 187.089 -134.307 188.068 -133.492 188.394C-133.165 188.557 -133.002 188.557 -132.676 188.557Z" fill="white" fill-opacity="0.15"/>
<path d="M-117.833 232.924C-117.343 232.924 -116.691 232.598 -116.365 232.109C-96.7913 196.387 -75.0974 168.821 -52.2617 150.389C-32.6883 134.731 -11.6468 125.107 10.3733 122.008C50.662 116.136 87.3622 132.447 113.949 144.191C124.878 149.084 134.338 153.325 141.679 154.793C168.429 160.339 187.676 148.595 209.859 135.057C223.071 126.901 236.773 118.583 253.736 112.547C298.429 96.8886 333.009 140.276 333.335 140.766C333.825 141.418 334.966 141.581 335.619 141.092C336.271 140.603 336.434 139.461 335.945 138.808C335.619 138.319 299.571 93.137 252.758 109.611C235.305 115.81 220.951 124.618 208.228 132.447C186.697 145.659 167.94 157.077 142.331 151.857C135.317 150.389 126.02 146.312 115.254 141.418C88.1778 129.511 51.1513 113.037 9.88397 118.909C-12.7886 122.171 -34.3194 131.958 -54.2191 148.106C-77.381 166.864 -99.238 194.593 -119.138 230.804C-119.627 231.619 -119.301 232.598 -118.485 232.924C-118.322 232.924 -118.159 232.924 -117.833 232.924Z" fill="white" fill-opacity="0.15"/>
<path d="M322.407 130.49C319.96 125.107 319.797 118.419 322.081 113.037C324.364 107.98 329.421 104.392 334.966 105.697C335.456 105.86 336.108 106.023 336.598 106.186C337.087 104.229 337.739 102.108 338.229 100.151C339.37 95.7468 340.349 91.3428 341.328 86.9387C339.207 84.1658 337.25 81.3929 335.619 78.4569C334.151 76.0102 332.846 73.4004 332.194 70.6275C331.215 66.5497 335.13 61.0039 339.534 63.1244C342.143 64.4293 343.938 67.0391 344.753 69.812C345.732 73.0742 345.079 76.8258 344.59 80.088C344.264 82.0454 343.938 84.0027 343.448 85.9601C344.753 87.5912 345.895 89.0592 347.2 90.6903C351.604 96.2361 356.334 101.619 359.596 107.98C362.695 113.852 365.305 121.029 363.185 127.717C361.227 133.752 355.845 138.156 350.136 140.439C348.015 141.255 345.732 141.744 343.611 141.744C340.838 142.234 338.066 142.234 335.456 141.744C333.335 141.255 331.541 140.603 329.747 139.461C329.421 140.603 329.258 141.908 328.931 143.049C327.79 148.106 327.137 153.162 326.648 158.219C326.321 162.949 325.995 167.842 326.648 172.573C326.974 175.019 327.626 177.792 328.931 179.913C329.747 181.381 330.889 182.686 332.357 183.501C334.151 184.48 336.108 185.295 338.066 185.785C340.512 186.274 342.796 186.274 345.079 185.458C345.406 185.295 345.895 185.132 346.221 184.969C345.079 184.48 343.938 183.827 342.959 183.175C340.349 181.218 339.534 177.466 339.534 174.53C339.37 168.821 345.079 163.765 350.788 165.233C355.192 166.374 358.618 171.105 359.27 175.345C360.249 182.359 354.214 186.274 348.505 188.394C340.186 191.494 330.726 188.068 326.485 180.239C325.506 178.281 325.017 176.324 324.527 174.204C322.896 167.027 323.549 159.36 324.853 152.184C325.669 147.453 326.811 142.723 327.953 137.993C325.506 136.035 323.712 133.426 322.407 130.49ZM341.654 73.8898C341.491 71.9324 341.165 69.9751 340.349 68.1809C340.023 67.2022 339.534 66.5497 338.881 65.7342C338.392 65.2448 337.902 64.9186 337.413 64.7555C336.924 64.4293 336.598 64.2662 335.945 64.4293C334.314 64.7555 333.498 66.7128 333.498 68.344C333.498 68.5071 333.498 68.8333 333.498 68.9964C333.498 69.3226 333.498 69.4857 333.498 69.812C333.498 70.6275 333.825 71.6062 334.151 72.5849C336.434 76.1733 338.881 79.5987 341.491 83.0241C341.491 82.0454 341.491 81.2298 341.491 80.2511C341.491 78.1307 341.654 76.0102 341.654 73.8898ZM330.726 137.34C331.704 137.83 332.683 138.319 333.662 138.645C334.151 138.808 334.803 138.808 335.293 138.971C337.576 139.461 339.534 139.95 341.98 139.624C343.122 139.461 344.264 139.298 345.242 139.135C348.015 138.156 350.625 136.525 352.746 134.404C357.802 129.511 359.107 122.334 357.965 115.646C356.66 108.306 352.419 101.782 348.015 95.7468C346.221 93.3001 344.427 91.0165 342.633 88.733C342.47 89.7116 342.306 90.6903 341.98 91.5059C340.838 96.5623 339.534 101.619 338.066 106.675C341.165 108.633 343.285 111.895 344.427 115.32C345.242 117.767 345.569 120.377 344.916 122.987C344.264 125.759 341.98 127.064 339.207 127.227C338.881 127.227 338.555 126.575 338.881 126.575C340.512 126.249 342.306 125.759 343.122 124.291C344.101 122.823 344.101 120.866 344.101 119.072C344.101 118.256 343.938 117.441 343.774 116.462C342.633 113.526 340.186 110.753 337.413 109.938C334.803 118.746 332.194 127.554 330.236 136.688C330.399 137.014 330.562 137.177 330.726 137.34ZM328.116 134.567C328.279 134.894 328.442 135.057 328.605 135.22C330.726 126.738 333.172 118.419 335.456 109.938C331.867 110.101 328.116 113.2 326.648 116.136C324.69 120.05 324.527 125.107 325.669 129.185C326.158 131.142 326.974 132.936 328.116 134.567Z" fill="url(#paint0_linear_38_271)"/>
<path d="M97.6387 128.369C98.7805 125.759 96.66 122.171 92.7453 120.54C88.8306 118.909 84.7529 119.561 83.6111 122.171C82.4693 124.781 84.5897 128.369 88.5044 130C92.256 131.632 96.3338 130.979 97.6387 128.369Z" fill="url(#paint1_linear_38_271)"/>
<path d="M96.3338 156.751C96.8232 156.751 97.3125 156.261 97.3125 155.772V125.107C97.3125 124.618 96.8232 124.128 96.3338 124.128C95.8445 124.128 95.3552 124.618 95.3552 125.107V155.772C95.3552 156.261 95.8445 156.751 96.3338 156.751Z" fill="url(#paint2_linear_38_271)"/>
<path d="M221.93 89.8748C220.788 92.4846 222.909 96.073 226.823 97.7041C230.738 99.3353 234.816 98.6828 235.958 96.073C237.099 93.4632 234.979 89.8748 231.064 88.2436C227.149 86.4494 223.072 87.1019 221.93 89.8748Z" fill="url(#paint3_linear_38_271)"/>
<path d="M223.072 93.9526C223.561 93.9526 224.05 93.4633 224.05 92.9739V62.3089C224.05 61.8195 223.724 61.4933 223.398 61.3302L198.931 54.1533C198.605 53.9901 198.279 54.1533 198.115 54.3164C197.789 54.4795 197.789 54.8057 197.789 55.1319V85.797C197.789 86.2863 198.279 86.7757 198.768 86.7757C199.257 86.7757 199.747 86.2863 199.747 85.797V56.4368L222.093 62.9613V92.9739C222.093 93.6264 222.582 93.9526 223.072 93.9526Z" fill="url(#paint4_linear_38_271)"/>
<path d="M197.463 82.6978C196.321 85.3076 198.442 88.896 202.356 90.5271C206.271 92.1583 210.349 91.5058 211.491 88.896C212.633 86.2862 210.512 82.6978 206.597 81.0666C202.683 79.2724 198.605 79.9249 197.463 82.6978Z" fill="url(#paint5_linear_38_271)"/>
<path d="M172.833 166.374C172.018 168.332 173.649 171.105 176.585 172.41C179.521 173.714 182.62 173.062 183.436 171.105C184.251 169.147 182.62 166.374 179.684 165.07C176.748 163.765 173.649 164.417 172.833 166.374Z" fill="url(#paint6_linear_38_271)"/>
<path d="M173.649 169.637C174.138 169.637 174.464 169.31 174.464 168.821V145.496C174.464 145.17 174.301 144.844 173.975 144.68L155.38 139.298C155.217 139.298 154.891 139.298 154.728 139.461C154.565 139.624 154.402 139.787 154.402 140.113V163.438C154.402 163.928 154.728 164.254 155.217 164.254C155.706 164.254 156.033 163.928 156.033 163.438V141.092L172.996 146.148V168.821C172.996 169.147 173.323 169.637 173.649 169.637Z" fill="url(#paint7_linear_38_271)"/>
<path d="M154.238 160.992C153.423 162.949 155.054 165.722 157.99 167.027C160.926 168.332 164.025 167.679 164.841 165.722C165.656 163.765 164.025 160.992 161.089 159.687C158.153 158.382 155.054 158.871 154.238 160.992Z" fill="url(#paint8_linear_38_271)"/>
<path d="M1.07588 28.5447C-0.0658998 31.1545 2.05456 34.7429 5.96925 36.3741C9.88394 38.0052 13.9617 37.3527 15.1035 34.7429C16.2453 32.1331 14.1249 28.5447 10.2102 26.9136C6.29548 25.1193 2.21767 25.7718 1.07588 28.5447Z" fill="url(#paint9_linear_38_271)"/>
<path d="M2.2181 32.6224C2.70743 32.6224 3.19678 32.1331 3.19678 31.6437V0.978672C3.19678 0.489336 2.70743 0 2.2181 0H-50.304C-50.7933 0 -51.2827 0.489336 -51.2827 0.978672C-51.2827 1.46801 -50.7933 1.95734 -50.304 1.95734H1.23944V31.6437C1.23944 32.2962 1.72876 32.6224 2.2181 32.6224Z" fill="url(#paint10_linear_38_271)"/>
<path d="M275.431 139.297C275.92 139.297 276.41 138.808 276.41 138.319V107.654C276.41 107.164 275.92 106.675 275.431 106.675C274.942 106.675 274.452 107.164 274.452 107.654V138.319C274.289 138.808 274.779 139.297 275.431 139.297Z" fill="url(#paint11_linear_38_271)"/>
<path d="M274.126 135.057C272.984 137.666 275.104 141.255 279.019 142.886C282.934 144.517 287.012 143.865 288.153 141.255C289.295 138.645 287.175 135.057 283.26 133.426C279.345 131.631 275.267 132.447 274.126 135.057Z" fill="url(#paint12_linear_38_271)"/>
<path d="M266.459 112.547C268.254 110.916 270.374 109.937 272.168 108.306C273.147 107.491 273.799 106.675 274.452 105.533C275.104 104.228 275.594 103.087 275.757 101.619C275.757 101.129 276.246 101.782 276.409 101.945C276.899 104.228 277.225 107.164 275.92 109.285C274.778 111.079 272.658 112.384 270.863 113.526C267.112 115.973 264.013 120.05 264.828 124.617C264.828 124.944 264.502 124.781 264.502 124.617C261.24 121.029 263.36 115.483 266.459 112.547Z" fill="url(#paint13_linear_38_271)"/>
<path d="M147.061 105.207C145.919 107.817 148.04 111.406 151.955 113.037C155.869 114.668 159.947 114.015 161.089 111.406C162.231 108.796 160.11 105.207 156.196 103.576C152.281 101.782 148.203 102.597 147.061 105.207Z" fill="url(#paint14_linear_38_271)"/>
<path d="M148.203 109.448C148.693 109.448 149.182 108.959 149.182 108.47V77.8045C149.182 77.3151 148.856 76.9889 148.53 76.8258L124.063 69.6489C123.737 69.4858 123.41 69.6489 123.247 69.812C122.921 69.9751 122.921 70.3013 122.921 70.6275V101.293C122.921 101.782 123.41 102.271 123.9 102.271C124.389 102.271 124.878 101.782 124.878 101.293V71.9324L147.225 78.4569V108.306C147.225 108.959 147.714 109.448 148.203 109.448Z" fill="url(#paint15_linear_38_271)"/>
<path d="M122.594 98.0304C121.453 100.64 123.573 104.229 127.488 105.86C131.402 107.491 135.48 106.838 136.622 104.229C137.764 101.619 135.643 98.0304 131.729 96.3993C127.814 94.7682 123.736 95.4206 122.594 98.0304Z" fill="url(#paint16_linear_38_271)"/>
<path d="M148.203 83.5133C148.692 83.5133 149.019 83.1871 149.182 82.6978C149.345 82.2085 149.019 81.556 148.529 81.3929L124.062 74.5422C123.573 74.3791 122.921 74.7053 122.758 75.1946C122.594 75.684 122.921 76.3364 123.41 76.4995L147.877 83.3502C148.04 83.5133 148.04 83.5133 148.203 83.5133Z" fill="url(#paint17_linear_38_271)"/>
<path d="M123.737 102.271C124.226 102.271 124.715 101.782 124.715 101.293V70.6275C124.715 70.1381 124.389 69.8119 124.063 69.6488L99.5961 62.4719C99.2698 62.3087 98.9436 62.4719 98.7805 62.635C98.4543 62.7981 98.4543 63.1243 98.4543 63.4505V94.1156C98.4543 94.6049 98.9436 95.0943 99.433 95.0943C99.9223 95.0943 100.412 94.6049 100.412 94.1156V64.7554L122.758 71.2799V101.129C122.758 101.782 123.247 102.271 123.737 102.271Z" fill="url(#paint18_linear_38_271)"/>
<path d="M98.1276 90.8534C96.9859 93.4632 99.1063 97.0517 103.021 98.6828C106.936 100.314 111.014 99.6615 112.155 97.0517C113.297 94.4419 111.177 90.8534 107.262 89.2223C103.347 87.5912 99.2694 88.2436 98.1276 90.8534Z" fill="url(#paint19_linear_38_271)"/>
<path d="M123.736 76.3363C124.226 76.3363 124.552 76.0101 124.715 75.5208C124.878 75.0315 124.552 74.379 124.062 74.2159L99.5956 67.3652C99.1063 67.2021 98.4539 67.5283 98.2907 68.0176C98.1276 68.507 98.4538 69.1594 98.9432 69.3225L123.41 76.1732C123.573 76.3363 123.736 76.3363 123.736 76.3363Z" fill="url(#paint20_linear_38_271)"/>
<path d="M22.4434 91.6691C23.5852 89.0593 21.4647 85.4708 17.55 83.8397C13.6353 82.2086 9.55751 82.861 8.41573 85.4708C7.27394 88.0806 9.3944 91.6691 13.3091 93.3002C17.2238 94.9313 21.3016 94.2789 22.4434 91.6691Z" fill="url(#paint21_linear_38_271)"/>
<path d="M45.6058 127.228C45.7689 127.228 46.0951 127.228 46.2583 127.064C46.5845 126.901 46.5845 126.575 46.5845 126.249V95.5838C46.5845 95.0945 46.0952 94.6052 45.6058 94.6052C45.1165 94.6052 44.6271 95.0945 44.6271 95.5838V124.944L22.2808 118.42V88.4069C22.2808 87.9176 21.7914 87.4282 21.3021 87.4282C20.8128 87.4282 20.3234 87.9176 20.3234 88.4069V119.072C20.3234 119.561 20.6497 119.888 20.9759 120.051L45.4427 127.228H45.6058Z" fill="url(#paint22_linear_38_271)"/>
<path d="M46.9102 98.846C48.052 96.2362 45.9315 92.6477 42.0168 91.0166C38.1021 89.3855 34.0243 90.0379 32.8825 92.6477C31.7407 95.2575 33.8612 98.846 37.7759 100.477C41.5275 102.108 45.6053 101.456 46.9102 98.846Z" fill="url(#paint23_linear_38_271)"/>
<path d="M45.6054 122.171C46.0947 122.171 46.4209 121.845 46.584 121.355C46.7471 120.866 46.4209 120.214 45.9316 120.05L21.4648 113.2C20.9755 113.037 20.323 113.363 20.1599 113.852C19.9968 114.342 20.323 114.994 20.8123 115.157L45.2792 122.008C45.4423 122.171 45.6054 122.171 45.6054 122.171Z" fill="url(#paint24_linear_38_271)"/>
</g>
<defs>
<linearGradient id="paint0_linear_38_271" x1="342.21" y1="62.6567" x2="342.21" y2="189.529" gradientUnits="userSpaceOnUse">
<stop stop-color="#FFAE1F"/>
<stop offset="0.0001" stop-color="#FFAE1F"/>
<stop offset="1" stop-color="#FD5526"/>
</linearGradient>
<linearGradient id="paint1_linear_38_271" x1="90.6249" y1="119.651" x2="90.6249" y2="130.89" gradientUnits="userSpaceOnUse">
<stop stop-color="#FFAE1F"/>
<stop offset="0.0001" stop-color="#FFAE1F"/>
<stop offset="1" stop-color="#FD5526"/>
</linearGradient>
<linearGradient id="paint2_linear_38_271" x1="96.3338" y1="124.128" x2="96.3338" y2="156.751" gradientUnits="userSpaceOnUse">
<stop stop-color="#FFAE1F"/>
<stop offset="0.0001" stop-color="#FFAE1F"/>
<stop offset="1" stop-color="#FD5526"/>
</linearGradient>
<linearGradient id="paint3_linear_38_271" x1="228.944" y1="87.2401" x2="228.944" y2="98.5934" gradientUnits="userSpaceOnUse">
<stop stop-color="#FFAE1F"/>
<stop offset="0.0001" stop-color="#FFAE1F"/>
<stop offset="1" stop-color="#FD5526"/>
</linearGradient>
<linearGradient id="paint4_linear_38_271" x1="210.92" y1="54.0857" x2="210.92" y2="93.9526" gradientUnits="userSpaceOnUse">
<stop stop-color="#FFAE1F"/>
<stop offset="0.0001" stop-color="#FFAE1F"/>
<stop offset="1" stop-color="#FD5526"/>
</linearGradient>
<linearGradient id="paint5_linear_38_271" x1="204.477" y1="80.0631" x2="204.477" y2="91.4164" gradientUnits="userSpaceOnUse">
<stop stop-color="#FFAE1F"/>
<stop offset="0.0001" stop-color="#FFAE1F"/>
<stop offset="1" stop-color="#FD5526"/>
</linearGradient>
<linearGradient id="paint6_linear_38_271" x1="178.134" y1="164.391" x2="178.134" y2="173.088" gradientUnits="userSpaceOnUse">
<stop stop-color="#FFAE1F"/>
<stop offset="0.0001" stop-color="#FFAE1F"/>
<stop offset="1" stop-color="#FD5526"/>
</linearGradient>
<linearGradient id="paint7_linear_38_271" x1="164.433" y1="139.298" x2="164.433" y2="169.637" gradientUnits="userSpaceOnUse">
<stop stop-color="#FFAE1F"/>
<stop offset="0.0001" stop-color="#FFAE1F"/>
<stop offset="1" stop-color="#FD5526"/>
</linearGradient>
<linearGradient id="paint8_linear_38_271" x1="159.54" y1="158.967" x2="159.54" y2="167.706" gradientUnits="userSpaceOnUse">
<stop stop-color="#FFAE1F"/>
<stop offset="0.0001" stop-color="#FFAE1F"/>
<stop offset="1" stop-color="#FD5526"/>
</linearGradient>
<linearGradient id="paint9_linear_38_271" x1="8.08971" y1="25.91" x2="8.08971" y2="37.2633" gradientUnits="userSpaceOnUse">
<stop stop-color="#FFAE1F"/>
<stop offset="0.0001" stop-color="#FFAE1F"/>
<stop offset="1" stop-color="#FD5526"/>
</linearGradient>
<linearGradient id="paint10_linear_38_271" x1="-24.0429" y1="0" x2="-24.0429" y2="32.6224" gradientUnits="userSpaceOnUse">
<stop stop-color="#FFAE1F"/>
<stop offset="0.0001" stop-color="#FFAE1F"/>
<stop offset="1" stop-color="#FD5526"/>
</linearGradient>
<linearGradient id="paint11_linear_38_271" x1="275.415" y1="106.675" x2="275.415" y2="139.297" gradientUnits="userSpaceOnUse">
<stop stop-color="#FFAE1F"/>
<stop offset="0.0001" stop-color="#FFAE1F"/>
<stop offset="1" stop-color="#FD5526"/>
</linearGradient>
<linearGradient id="paint12_linear_38_271" x1="281.14" y1="132.464" x2="281.14" y2="143.775" gradientUnits="userSpaceOnUse">
<stop stop-color="#FFAE1F"/>
<stop offset="0.0001" stop-color="#FFAE1F"/>
<stop offset="1" stop-color="#FD5526"/>
</linearGradient>
<linearGradient id="paint13_linear_38_271" x1="269.852" y1="101.44" x2="269.852" y2="124.806" gradientUnits="userSpaceOnUse">
<stop stop-color="#FFAE1F"/>
<stop offset="0.0001" stop-color="#FFAE1F"/>
<stop offset="1" stop-color="#FD5526"/>
</linearGradient>
<linearGradient id="paint14_linear_38_271" x1="154.075" y1="102.615" x2="154.075" y2="113.926" gradientUnits="userSpaceOnUse">
<stop stop-color="#FFAE1F"/>
<stop offset="0.0001" stop-color="#FFAE1F"/>
<stop offset="1" stop-color="#FD5526"/>
</linearGradient>
<linearGradient id="paint15_linear_38_271" x1="136.052" y1="69.5813" x2="136.052" y2="109.448" gradientUnits="userSpaceOnUse">
<stop stop-color="#FFAE1F"/>
<stop offset="0.0001" stop-color="#FFAE1F"/>
<stop offset="1" stop-color="#FD5526"/>
</linearGradient>
<linearGradient id="paint16_linear_38_271" x1="129.608" y1="95.51" x2="129.608" y2="106.749" gradientUnits="userSpaceOnUse">
<stop stop-color="#FFAE1F"/>
<stop offset="0.0001" stop-color="#FFAE1F"/>
<stop offset="1" stop-color="#FD5526"/>
</linearGradient>
<linearGradient id="paint17_linear_38_271" x1="135.97" y1="74.4998" x2="135.97" y2="83.5133" gradientUnits="userSpaceOnUse">
<stop stop-color="#FFAE1F"/>
<stop offset="0.0001" stop-color="#FFAE1F"/>
<stop offset="1" stop-color="#FD5526"/>
</linearGradient>
<linearGradient id="paint18_linear_38_271" x1="111.585" y1="62.4043" x2="111.585" y2="102.271" gradientUnits="userSpaceOnUse">
<stop stop-color="#FFAE1F"/>
<stop offset="0.0001" stop-color="#FFAE1F"/>
<stop offset="1" stop-color="#FD5526"/>
</linearGradient>
<linearGradient id="paint19_linear_38_271" x1="105.141" y1="88.333" x2="105.141" y2="99.5721" gradientUnits="userSpaceOnUse">
<stop stop-color="#FFAE1F"/>
<stop offset="0.0001" stop-color="#FFAE1F"/>
<stop offset="1" stop-color="#FD5526"/>
</linearGradient>
<linearGradient id="paint20_linear_38_271" x1="111.503" y1="67.3228" x2="111.503" y2="76.3363" gradientUnits="userSpaceOnUse">
<stop stop-color="#FFAE1F"/>
<stop offset="0.0001" stop-color="#FFAE1F"/>
<stop offset="1" stop-color="#FD5526"/>
</linearGradient>
<linearGradient id="paint21_linear_38_271" x1="15.4296" y1="82.9504" x2="15.4296" y2="94.1895" gradientUnits="userSpaceOnUse">
<stop stop-color="#FFAE1F"/>
<stop offset="0.0001" stop-color="#FFAE1F"/>
<stop offset="1" stop-color="#FD5526"/>
</linearGradient>
<linearGradient id="paint22_linear_38_271" x1="33.454" y1="87.4282" x2="33.454" y2="127.228" gradientUnits="userSpaceOnUse">
<stop stop-color="#FFAE1F"/>
<stop offset="0.0001" stop-color="#FFAE1F"/>
<stop offset="1" stop-color="#FD5526"/>
</linearGradient>
<linearGradient id="paint23_linear_38_271" x1="39.8963" y1="90.1273" x2="39.8963" y2="101.366" gradientUnits="userSpaceOnUse">
<stop stop-color="#FFAE1F"/>
<stop offset="0.0001" stop-color="#FFAE1F"/>
<stop offset="1" stop-color="#FD5526"/>
</linearGradient>
<linearGradient id="paint24_linear_38_271" x1="33.372" y1="113.157" x2="33.372" y2="122.171" gradientUnits="userSpaceOnUse">
<stop stop-color="#FFAE1F"/>
<stop offset="0.0001" stop-color="#FFAE1F"/>
<stop offset="1" stop-color="#FD5526"/>
</linearGradient>
<clipPath id="clip0_38_271">
<rect width="543" height="232.924" fill="white" transform="matrix(-1 0 0 1 364 0)"/>
</clipPath>
</defs>
</svg>
