<svg width="364" height="233" viewBox="0 0 364 233" fill="none" xmlns="http://www.w3.org/2000/svg">
<g clip-path="url(#clip0_38_198)">
<path d="M29.36 141.255C29.1968 141.255 29.0337 141.255 29.0337 141.255C28.2182 141.092 27.5657 140.113 27.8919 139.298C28.0551 138.645 32.1329 121.845 42.2458 104.881C55.7841 82.2085 74.0527 70.6275 94.6048 71.1169C113.036 71.6062 129.511 75.684 144.028 79.1094C168.658 85.1445 189.862 90.3641 212.698 77.4783C222.158 72.0956 231.293 65.2449 241.079 57.9048C269.135 37.1896 304.041 11.0917 365.86 7.01385C434.856 2.60983 479.223 15.1695 504.179 26.5873C531.419 38.9838 542.184 52.359 542.674 52.8483C543.163 53.5008 543.163 54.6426 542.347 55.1319C541.695 55.6212 540.553 55.6212 540.064 54.8057C539.901 54.6426 529.298 41.4305 502.548 29.3602C477.918 18.2686 434.204 5.87207 366.023 10.2761C305.182 14.1908 272.071 38.8207 242.874 60.6777C233.087 68.0178 223.626 75.0316 214.166 80.4143C190.352 93.9526 168.495 88.5699 143.212 82.5347C128.206 78.7832 112.547 75.0316 94.4417 74.5422C93.9523 74.5422 93.463 74.5422 92.9736 74.5422C46.8129 74.5422 30.9911 139.461 30.828 140.113C30.828 140.766 30.1755 141.255 29.36 141.255Z" fill="white" fill-opacity="0.15"/>
<path d="M29.3597 141.255C29.1966 141.255 29.0335 141.255 28.8704 141.092C28.0548 140.766 27.5655 139.95 27.8917 138.971C28.0548 138.319 33.2744 122.986 44.5292 107.98C59.5355 87.9174 78.2934 78.4569 98.6824 80.5773C116.788 82.3716 132.61 87.5911 146.637 91.9952C169.799 99.3352 189.862 105.86 212.045 96.2361C216.123 94.4418 219.222 92.9738 221.995 91.3427C228.52 87.7543 235.207 83.3502 242.547 78.62C271.255 59.8621 307.14 36.5371 364.229 35.0691C412.021 33.7642 451.983 41.5935 483.464 58.0679C513.15 73.7266 525.057 92.1583 527.83 97.3779C528.319 98.1934 527.993 99.1721 527.178 99.4983C526.362 99.9877 525.383 99.6614 525.057 98.8459C521.469 92.3214 486.4 35.0691 364.392 38.3313C308.281 39.7993 272.886 62.7981 244.505 81.3929C237.164 86.1231 230.314 90.5272 223.789 94.2787C220.853 95.9099 217.591 97.541 213.513 99.3352C190.188 109.448 169.636 102.924 145.822 95.2574C131.305 90.5272 116.298 85.7969 98.5192 84.0027C51.8692 79.2724 31.154 139.624 30.9909 140.276C30.6646 140.929 30.1753 141.255 29.3597 141.255Z" fill="white" fill-opacity="0.15"/>
<path d="M511.519 144.191C511.03 144.191 510.378 143.865 510.051 143.375C491.457 109.448 450.679 68.507 362.598 66.5497C311.055 65.4079 273.539 86.7756 246.136 102.271C237.491 107.165 230.151 111.405 223.137 114.505C219.386 116.136 215.634 117.441 212.535 118.256C189.862 125.107 170.615 117.278 148.432 108.306C134.404 102.597 119.724 96.7254 102.271 93.4632C56.4367 85.1445 30.9912 139.787 30.8281 140.276C30.5019 141.092 29.5232 141.418 28.7077 141.092C27.8921 140.766 27.5659 139.787 27.8921 138.971C28.2183 138.319 34.5797 124.454 46.9762 111.405C63.4505 93.9525 82.8609 86.6125 102.924 90.364C120.703 93.6263 136.035 99.8245 149.737 105.37C171.431 114.178 190.189 121.682 211.719 115.32C214.819 114.342 218.407 113.2 221.995 111.732C228.846 108.633 236.186 104.555 244.668 99.6614C272.397 84.0027 310.402 62.4719 362.761 63.6137C452.473 65.571 493.903 107.328 512.987 142.071C513.477 142.886 513.15 143.865 512.335 144.191C512.172 144.191 511.846 144.191 511.519 144.191Z" fill="white" fill-opacity="0.15"/>
<path d="M496.676 188.557C496.024 188.557 495.534 188.231 495.208 187.742C463.564 130.326 419.687 99.8245 360.967 94.768C313.99 90.6902 275.985 109.448 248.256 123.15C238.47 128.043 229.988 132.121 222.811 134.567C219.549 135.709 216.123 136.525 211.719 137.177C189.699 140.766 171.92 131.794 151.205 121.518C137.503 114.668 123.476 107.654 106.186 103.087C60.8406 91.0165 30.9911 140.113 30.6649 140.603C30.1755 141.418 29.1968 141.581 28.3813 141.092C27.5657 140.603 27.4026 139.624 27.892 138.808C28.2182 138.319 35.7213 125.759 49.2596 114.668C67.202 99.8245 87.2647 94.768 107.001 99.9876C124.617 104.718 139.461 112.058 152.673 118.746C172.899 128.858 190.188 137.667 211.23 134.078C215.308 133.426 218.733 132.61 221.832 131.631C228.846 129.348 237.165 125.107 246.951 120.377C275.007 106.512 313.501 87.428 361.293 91.6689C421.318 96.8885 466.011 127.88 498.144 186.274C498.633 187.089 498.307 188.068 497.492 188.394C497.165 188.557 497.002 188.557 496.676 188.557Z" fill="white" fill-opacity="0.15"/>
<path d="M481.833 232.924C481.343 232.924 480.691 232.598 480.365 232.109C460.791 196.387 439.097 168.821 416.262 150.389C396.688 134.731 375.647 125.107 353.627 122.008C313.338 116.136 276.638 132.447 250.051 144.191C239.122 149.084 229.662 153.325 222.321 154.793C195.571 160.339 176.324 148.595 154.141 135.057C140.929 126.901 127.227 118.583 110.264 112.547C65.5708 96.8886 30.991 140.276 30.6648 140.766C30.1755 141.418 29.0337 141.581 28.3813 141.092C27.7288 140.603 27.5657 139.461 28.055 138.808C28.3813 138.319 64.429 93.137 111.242 109.611C128.695 115.81 143.049 124.618 155.772 132.447C177.303 145.659 196.06 157.077 221.669 151.857C228.683 150.389 237.98 146.312 248.746 141.418C275.822 129.511 312.849 113.037 354.116 118.909C376.789 122.171 398.319 131.958 418.219 148.106C441.381 166.864 463.238 194.593 483.138 230.804C483.627 231.619 483.301 232.598 482.485 232.924C482.322 232.924 482.159 232.924 481.833 232.924Z" fill="white" fill-opacity="0.15"/>
<path d="M41.5932 130.49C44.0399 125.107 44.203 118.419 41.9194 113.037C39.6358 107.98 34.5794 104.392 29.0336 105.697C28.5442 105.86 27.8918 106.023 27.4024 106.186C26.9131 104.229 26.2607 102.108 25.7713 100.151C24.6295 95.7468 23.6509 91.3428 22.6722 86.9387C24.7926 84.1658 26.75 81.3929 28.3811 78.4569C29.8491 76.0102 31.154 73.4004 31.8065 70.6275C32.7851 66.5497 28.8705 61.0039 24.4664 63.1244C21.8566 64.4293 20.0624 67.0391 19.2468 69.812C18.2682 73.0742 18.9206 76.8258 19.41 80.088C19.7362 82.0454 20.0624 84.0027 20.5517 85.9601C19.2468 87.5912 18.1051 89.0592 16.8002 90.6903C12.3961 96.2361 7.66589 101.619 4.40365 107.98C1.30452 113.852 -1.30528 121.029 0.81518 127.717C2.77252 133.752 8.15522 138.156 13.8641 140.439C15.9846 141.255 18.2682 141.744 20.3886 141.744C23.1615 142.234 25.9344 142.234 28.5442 141.744C30.6647 141.255 32.4589 140.603 34.2532 139.461C34.5794 140.603 34.7425 141.908 35.0687 143.049C36.2105 148.106 36.8629 153.162 37.3523 158.219C37.6785 162.949 38.0047 167.842 37.3523 172.573C37.0261 175.019 36.3736 177.792 35.0687 179.913C34.2532 181.381 33.1114 182.686 31.6434 183.501C29.8491 184.48 27.8918 185.295 25.9344 185.785C23.4878 186.274 21.2042 186.274 18.9206 185.458C18.5944 185.295 18.1051 185.132 17.7788 184.969C18.9206 184.48 20.0624 183.827 21.0411 183.175C23.6509 181.218 24.4664 177.466 24.4664 174.53C24.6295 168.821 18.9206 163.765 13.2117 165.233C8.80767 166.374 5.38232 171.105 4.72987 175.345C3.7512 182.359 9.78634 186.274 15.4953 188.394C23.814 191.494 33.2745 188.068 37.5154 180.239C38.4941 178.281 38.9834 176.324 39.4727 174.204C41.1039 167.027 40.4514 159.36 39.1465 152.184C38.331 147.453 37.1892 142.723 36.0474 137.993C38.4941 136.035 40.2883 133.426 41.5932 130.49ZM22.346 73.8898C22.5091 71.9324 22.8353 69.9751 23.6509 68.1809C23.9771 67.2022 24.4664 66.5497 25.1189 65.7342C25.6082 65.2448 26.0975 64.9186 26.5869 64.7555C27.0762 64.4293 27.4024 64.2662 28.0549 64.4293C29.686 64.7555 30.5016 66.7128 30.5016 68.344C30.5016 68.5071 30.5016 68.8333 30.5016 68.9964C30.5016 69.3226 30.5016 69.4857 30.5016 69.812C30.5016 70.6275 30.1753 71.6062 29.8491 72.5849C27.5656 76.1733 25.1189 79.5987 22.5091 83.0241C22.5091 82.0454 22.5091 81.2298 22.5091 80.2511C22.5091 78.1307 22.346 76.0102 22.346 73.8898ZM33.2745 137.34C32.2958 137.83 31.3171 138.319 30.3385 138.645C29.8491 138.808 29.1967 138.808 28.7073 138.971C26.4238 139.461 24.4664 139.95 22.0197 139.624C20.878 139.461 19.7362 139.298 18.7575 139.135C15.9846 138.156 13.3748 136.525 11.2544 134.404C6.19788 129.511 4.89298 122.334 6.03477 115.646C7.33966 108.306 11.5806 101.782 15.9846 95.7468C17.7788 93.3001 19.5731 91.0165 21.3673 88.733C21.5304 89.7116 21.6935 90.6903 22.0197 91.5059C23.1615 96.5623 24.4664 101.619 25.9344 106.675C22.8353 108.633 20.7148 111.895 19.5731 115.32C18.7575 117.767 18.4313 120.377 19.0837 122.987C19.7362 125.759 22.0197 127.064 24.7927 127.227C25.1189 127.227 25.4451 126.575 25.1189 126.575C23.4878 126.249 21.6935 125.759 20.878 124.291C19.8993 122.823 19.8993 120.866 19.8993 119.072C19.8993 118.256 20.0624 117.441 20.2255 116.462C21.3673 113.526 23.814 110.753 26.5869 109.938C29.1967 118.746 31.8065 127.554 33.7638 136.688C33.6007 137.014 33.4376 137.177 33.2745 137.34ZM35.8843 134.567C35.7212 134.894 35.558 135.057 35.3949 135.22C33.2745 126.738 30.8278 118.419 28.5442 109.938C32.1327 110.101 35.8843 113.2 37.3523 116.136C39.3096 120.05 39.4727 125.107 38.331 129.185C37.8416 131.142 37.0261 132.936 35.8843 134.567Z" fill="url(#paint0_linear_38_198)"/>
<path d="M266.362 128.369C265.22 125.759 267.34 122.171 271.255 120.54C275.17 118.909 279.247 119.561 280.389 122.171C281.531 124.781 279.411 128.369 275.496 130C271.744 131.632 267.666 130.979 266.362 128.369Z" fill="url(#paint1_linear_38_198)"/>
<path d="M267.666 156.751C267.177 156.751 266.688 156.261 266.688 155.772V125.107C266.688 124.618 267.177 124.128 267.666 124.128C268.156 124.128 268.645 124.618 268.645 125.107V155.772C268.645 156.261 268.156 156.751 267.666 156.751Z" fill="url(#paint2_linear_38_198)"/>
<path d="M142.07 89.8748C143.212 92.4846 141.092 96.073 137.177 97.7041C133.262 99.3353 129.184 98.6828 128.043 96.073C126.901 93.4632 129.021 89.8748 132.936 88.2436C136.851 86.4494 140.929 87.1019 142.07 89.8748Z" fill="url(#paint3_linear_38_198)"/>
<path d="M140.928 93.9526C140.439 93.9526 139.95 93.4633 139.95 92.9739V62.3089C139.95 61.8195 140.276 61.4933 140.602 61.3302L165.069 54.1533C165.395 53.9901 165.721 54.1533 165.885 54.3164C166.211 54.4795 166.211 54.8057 166.211 55.1319V85.797C166.211 86.2863 165.721 86.7757 165.232 86.7757C164.743 86.7757 164.253 86.2863 164.253 85.797V56.4368L141.907 62.9613V92.9739C141.907 93.6264 141.418 93.9526 140.928 93.9526Z" fill="url(#paint4_linear_38_198)"/>
<path d="M166.537 82.6978C167.679 85.3076 165.558 88.896 161.644 90.5271C157.729 92.1583 153.651 91.5058 152.51 88.896C151.368 86.2862 153.488 82.6978 157.403 81.0666C161.318 79.2724 165.395 79.9249 166.537 82.6978Z" fill="url(#paint5_linear_38_198)"/>
<path d="M191.167 166.374C191.983 168.332 190.351 171.105 187.415 172.41C184.479 173.714 181.38 173.062 180.565 171.105C179.749 169.147 181.38 166.374 184.316 165.07C187.252 163.765 190.351 164.417 191.167 166.374Z" fill="url(#paint6_linear_38_198)"/>
<path d="M190.351 169.637C189.862 169.637 189.536 169.31 189.536 168.821V145.496C189.536 145.17 189.699 144.844 190.025 144.68L208.62 139.298C208.783 139.298 209.109 139.298 209.272 139.461C209.436 139.624 209.599 139.787 209.599 140.113V163.438C209.599 163.928 209.272 164.254 208.783 164.254C208.294 164.254 207.968 163.928 207.968 163.438V141.092L191.004 146.148V168.821C191.004 169.147 190.678 169.637 190.351 169.637Z" fill="url(#paint7_linear_38_198)"/>
<path d="M209.762 160.992C210.577 162.949 208.946 165.722 206.01 167.027C203.074 168.332 199.975 167.679 199.159 165.722C198.344 163.765 199.975 160.992 202.911 159.687C205.847 158.382 208.946 158.871 209.762 160.992Z" fill="url(#paint8_linear_38_198)"/>
<path d="M362.924 28.5447C364.066 31.1545 361.945 34.7429 358.031 36.3741C354.116 38.0052 350.038 37.3527 348.896 34.7429C347.754 32.1331 349.875 28.5447 353.79 26.9136C357.704 25.1193 361.782 25.7718 362.924 28.5447Z" fill="url(#paint9_linear_38_198)"/>
<path d="M361.782 32.6224C361.293 32.6224 360.803 32.1331 360.803 31.6437V0.978672C360.803 0.489336 361.293 0 361.782 0H414.304C414.793 0 415.283 0.489336 415.283 0.978672C415.283 1.46801 414.793 1.95734 414.304 1.95734H362.761V31.6437C362.761 32.2962 362.271 32.6224 361.782 32.6224Z" fill="url(#paint10_linear_38_198)"/>
<path d="M88.5692 139.297C88.0799 139.297 87.5906 138.808 87.5906 138.319V107.654C87.5906 107.164 88.0799 106.675 88.5692 106.675C89.0586 106.675 89.5479 107.164 89.5479 107.654V138.319C89.711 138.808 89.2217 139.297 88.5692 139.297Z" fill="url(#paint11_linear_38_198)"/>
<path d="M89.8743 135.057C91.0161 137.666 88.8956 141.255 84.9809 142.886C81.0662 144.517 76.9884 143.865 75.8467 141.255C74.7049 138.645 76.8253 135.057 80.74 133.426C84.6547 131.631 88.7325 132.447 89.8743 135.057Z" fill="url(#paint12_linear_38_198)"/>
<path d="M97.5405 112.547C95.7463 110.916 93.6259 109.937 91.8316 108.306C90.8529 107.491 90.2005 106.675 89.5481 105.533C88.8956 104.228 88.4063 103.087 88.2432 101.619C88.2432 101.129 87.7538 101.782 87.5907 101.945C87.1014 104.228 86.7751 107.164 88.08 109.285C89.2218 111.079 91.3423 112.384 93.1365 113.526C96.8881 115.973 99.9872 120.05 99.1717 124.617C99.1717 124.944 99.4979 124.781 99.4979 124.617C102.76 121.029 100.64 115.483 97.5405 112.547Z" fill="url(#paint13_linear_38_198)"/>
<path d="M216.939 105.207C218.081 107.817 215.96 111.406 212.045 113.037C208.131 114.668 204.053 114.015 202.911 111.406C201.769 108.796 203.89 105.207 207.804 103.576C211.719 101.782 215.797 102.597 216.939 105.207Z" fill="url(#paint14_linear_38_198)"/>
<path d="M215.797 109.448C215.307 109.448 214.818 108.959 214.818 108.47V77.8045C214.818 77.3151 215.144 76.9889 215.471 76.8258L239.937 69.6489C240.264 69.4858 240.59 69.6489 240.753 69.812C241.079 69.9751 241.079 70.3013 241.079 70.6275V101.293C241.079 101.782 240.59 102.271 240.1 102.271C239.611 102.271 239.122 101.782 239.122 101.293V71.9324L216.775 78.4569V108.306C216.775 108.959 216.286 109.448 215.797 109.448Z" fill="url(#paint15_linear_38_198)"/>
<path d="M241.406 98.0304C242.547 100.64 240.427 104.229 236.512 105.86C232.598 107.491 228.52 106.838 227.378 104.229C226.236 101.619 228.357 98.0304 232.271 96.3993C236.186 94.7682 240.264 95.4206 241.406 98.0304Z" fill="url(#paint16_linear_38_198)"/>
<path d="M215.797 83.5133C215.308 83.5133 214.981 83.1871 214.818 82.6978C214.655 82.2085 214.981 81.556 215.471 81.3929L239.938 74.5422C240.427 74.3791 241.079 74.7053 241.242 75.1946C241.406 75.684 241.079 76.3364 240.59 76.4995L216.123 83.3502C215.96 83.5133 215.96 83.5133 215.797 83.5133Z" fill="url(#paint17_linear_38_198)"/>
<path d="M240.263 102.271C239.774 102.271 239.285 101.782 239.285 101.293V70.6275C239.285 70.1381 239.611 69.8119 239.937 69.6488L264.404 62.4719C264.73 62.3087 265.056 62.4719 265.219 62.635C265.546 62.7981 265.546 63.1243 265.546 63.4505V94.1156C265.546 94.6049 265.056 95.0943 264.567 95.0943C264.078 95.0943 263.588 94.6049 263.588 94.1156V64.7554L241.242 71.2799V101.129C241.242 101.782 240.753 102.271 240.263 102.271Z" fill="url(#paint18_linear_38_198)"/>
<path d="M265.872 90.8534C267.014 93.4632 264.894 97.0517 260.979 98.6828C257.064 100.314 252.986 99.6615 251.845 97.0517C250.703 94.4419 252.823 90.8534 256.738 89.2223C260.653 87.5912 264.731 88.2436 265.872 90.8534Z" fill="url(#paint19_linear_38_198)"/>
<path d="M240.264 76.3363C239.774 76.3363 239.448 76.0101 239.285 75.5208C239.122 75.0315 239.448 74.379 239.938 74.2159L264.404 67.3652C264.894 67.2021 265.546 67.5283 265.709 68.0176C265.872 68.507 265.546 69.1594 265.057 69.3225L240.59 76.1732C240.427 76.3363 240.264 76.3363 240.264 76.3363Z" fill="url(#paint20_linear_38_198)"/>
<path d="M341.557 91.6691C340.415 89.0593 342.535 85.4708 346.45 83.8397C350.365 82.2086 354.442 82.861 355.584 85.4708C356.726 88.0806 354.606 91.6691 350.691 93.3002C346.776 94.9313 342.698 94.2789 341.557 91.6691Z" fill="url(#paint21_linear_38_198)"/>
<path d="M318.394 127.228C318.231 127.228 317.905 127.228 317.742 127.064C317.416 126.901 317.416 126.575 317.416 126.249V95.5838C317.416 95.0945 317.905 94.6052 318.394 94.6052C318.884 94.6052 319.373 95.0945 319.373 95.5838V124.944L341.719 118.42V88.4069C341.719 87.9176 342.209 87.4282 342.698 87.4282C343.187 87.4282 343.677 87.9176 343.677 88.4069V119.072C343.677 119.561 343.35 119.888 343.024 120.051L318.557 127.228H318.394Z" fill="url(#paint22_linear_38_198)"/>
<path d="M317.09 98.846C315.948 96.2362 318.069 92.6477 321.983 91.0166C325.898 89.3855 329.976 90.0379 331.117 92.6477C332.259 95.2575 330.139 98.846 326.224 100.477C322.473 102.108 318.395 101.456 317.09 98.846Z" fill="url(#paint23_linear_38_198)"/>
<path d="M318.394 122.171C317.905 122.171 317.579 121.845 317.416 121.355C317.253 120.866 317.579 120.214 318.068 120.05L342.535 113.2C343.024 113.037 343.677 113.363 343.84 113.852C344.003 114.342 343.677 114.994 343.187 115.157L318.721 122.008C318.557 122.171 318.394 122.171 318.394 122.171Z" fill="url(#paint24_linear_38_198)"/>
</g>
<defs>
<linearGradient id="paint0_linear_38_198" x1="21.7901" y1="62.6567" x2="21.7901" y2="189.529" gradientUnits="userSpaceOnUse">
<stop stop-color="#FFAE1F"/>
<stop offset="0.0001" stop-color="#FFAE1F"/>
<stop offset="1" stop-color="#FD5526"/>
</linearGradient>
<linearGradient id="paint1_linear_38_198" x1="273.375" y1="119.651" x2="273.375" y2="130.89" gradientUnits="userSpaceOnUse">
<stop stop-color="#FFAE1F"/>
<stop offset="0.0001" stop-color="#FFAE1F"/>
<stop offset="1" stop-color="#FD5526"/>
</linearGradient>
<linearGradient id="paint2_linear_38_198" x1="267.666" y1="124.128" x2="267.666" y2="156.751" gradientUnits="userSpaceOnUse">
<stop stop-color="#FFAE1F"/>
<stop offset="0.0001" stop-color="#FFAE1F"/>
<stop offset="1" stop-color="#FD5526"/>
</linearGradient>
<linearGradient id="paint3_linear_38_198" x1="135.057" y1="87.2401" x2="135.057" y2="98.5934" gradientUnits="userSpaceOnUse">
<stop stop-color="#FFAE1F"/>
<stop offset="0.0001" stop-color="#FFAE1F"/>
<stop offset="1" stop-color="#FD5526"/>
</linearGradient>
<linearGradient id="paint4_linear_38_198" x1="153.08" y1="54.0857" x2="153.08" y2="93.9526" gradientUnits="userSpaceOnUse">
<stop stop-color="#FFAE1F"/>
<stop offset="0.0001" stop-color="#FFAE1F"/>
<stop offset="1" stop-color="#FD5526"/>
</linearGradient>
<linearGradient id="paint5_linear_38_198" x1="159.523" y1="80.0631" x2="159.523" y2="91.4164" gradientUnits="userSpaceOnUse">
<stop stop-color="#FFAE1F"/>
<stop offset="0.0001" stop-color="#FFAE1F"/>
<stop offset="1" stop-color="#FD5526"/>
</linearGradient>
<linearGradient id="paint6_linear_38_198" x1="185.866" y1="164.391" x2="185.866" y2="173.088" gradientUnits="userSpaceOnUse">
<stop stop-color="#FFAE1F"/>
<stop offset="0.0001" stop-color="#FFAE1F"/>
<stop offset="1" stop-color="#FD5526"/>
</linearGradient>
<linearGradient id="paint7_linear_38_198" x1="199.567" y1="139.298" x2="199.567" y2="169.637" gradientUnits="userSpaceOnUse">
<stop stop-color="#FFAE1F"/>
<stop offset="0.0001" stop-color="#FFAE1F"/>
<stop offset="1" stop-color="#FD5526"/>
</linearGradient>
<linearGradient id="paint8_linear_38_198" x1="204.46" y1="158.967" x2="204.46" y2="167.706" gradientUnits="userSpaceOnUse">
<stop stop-color="#FFAE1F"/>
<stop offset="0.0001" stop-color="#FFAE1F"/>
<stop offset="1" stop-color="#FD5526"/>
</linearGradient>
<linearGradient id="paint9_linear_38_198" x1="355.91" y1="25.91" x2="355.91" y2="37.2633" gradientUnits="userSpaceOnUse">
<stop stop-color="#FFAE1F"/>
<stop offset="0.0001" stop-color="#FFAE1F"/>
<stop offset="1" stop-color="#FD5526"/>
</linearGradient>
<linearGradient id="paint10_linear_38_198" x1="388.043" y1="0" x2="388.043" y2="32.6224" gradientUnits="userSpaceOnUse">
<stop stop-color="#FFAE1F"/>
<stop offset="0.0001" stop-color="#FFAE1F"/>
<stop offset="1" stop-color="#FD5526"/>
</linearGradient>
<linearGradient id="paint11_linear_38_198" x1="88.5851" y1="106.675" x2="88.5851" y2="139.297" gradientUnits="userSpaceOnUse">
<stop stop-color="#FFAE1F"/>
<stop offset="0.0001" stop-color="#FFAE1F"/>
<stop offset="1" stop-color="#FD5526"/>
</linearGradient>
<linearGradient id="paint12_linear_38_198" x1="82.8605" y1="132.464" x2="82.8605" y2="143.775" gradientUnits="userSpaceOnUse">
<stop stop-color="#FFAE1F"/>
<stop offset="0.0001" stop-color="#FFAE1F"/>
<stop offset="1" stop-color="#FD5526"/>
</linearGradient>
<linearGradient id="paint13_linear_38_198" x1="94.1476" y1="101.44" x2="94.1476" y2="124.806" gradientUnits="userSpaceOnUse">
<stop stop-color="#FFAE1F"/>
<stop offset="0.0001" stop-color="#FFAE1F"/>
<stop offset="1" stop-color="#FD5526"/>
</linearGradient>
<linearGradient id="paint14_linear_38_198" x1="209.925" y1="102.615" x2="209.925" y2="113.926" gradientUnits="userSpaceOnUse">
<stop stop-color="#FFAE1F"/>
<stop offset="0.0001" stop-color="#FFAE1F"/>
<stop offset="1" stop-color="#FD5526"/>
</linearGradient>
<linearGradient id="paint15_linear_38_198" x1="227.949" y1="69.5813" x2="227.949" y2="109.448" gradientUnits="userSpaceOnUse">
<stop stop-color="#FFAE1F"/>
<stop offset="0.0001" stop-color="#FFAE1F"/>
<stop offset="1" stop-color="#FD5526"/>
</linearGradient>
<linearGradient id="paint16_linear_38_198" x1="234.392" y1="95.51" x2="234.392" y2="106.749" gradientUnits="userSpaceOnUse">
<stop stop-color="#FFAE1F"/>
<stop offset="0.0001" stop-color="#FFAE1F"/>
<stop offset="1" stop-color="#FD5526"/>
</linearGradient>
<linearGradient id="paint17_linear_38_198" x1="228.03" y1="74.4998" x2="228.03" y2="83.5133" gradientUnits="userSpaceOnUse">
<stop stop-color="#FFAE1F"/>
<stop offset="0.0001" stop-color="#FFAE1F"/>
<stop offset="1" stop-color="#FD5526"/>
</linearGradient>
<linearGradient id="paint18_linear_38_198" x1="252.415" y1="62.4043" x2="252.415" y2="102.271" gradientUnits="userSpaceOnUse">
<stop stop-color="#FFAE1F"/>
<stop offset="0.0001" stop-color="#FFAE1F"/>
<stop offset="1" stop-color="#FD5526"/>
</linearGradient>
<linearGradient id="paint19_linear_38_198" x1="258.859" y1="88.333" x2="258.859" y2="99.5721" gradientUnits="userSpaceOnUse">
<stop stop-color="#FFAE1F"/>
<stop offset="0.0001" stop-color="#FFAE1F"/>
<stop offset="1" stop-color="#FD5526"/>
</linearGradient>
<linearGradient id="paint20_linear_38_198" x1="252.497" y1="67.3228" x2="252.497" y2="76.3363" gradientUnits="userSpaceOnUse">
<stop stop-color="#FFAE1F"/>
<stop offset="0.0001" stop-color="#FFAE1F"/>
<stop offset="1" stop-color="#FD5526"/>
</linearGradient>
<linearGradient id="paint21_linear_38_198" x1="348.57" y1="82.9504" x2="348.57" y2="94.1895" gradientUnits="userSpaceOnUse">
<stop stop-color="#FFAE1F"/>
<stop offset="0.0001" stop-color="#FFAE1F"/>
<stop offset="1" stop-color="#FD5526"/>
</linearGradient>
<linearGradient id="paint22_linear_38_198" x1="330.546" y1="87.4282" x2="330.546" y2="127.228" gradientUnits="userSpaceOnUse">
<stop stop-color="#FFAE1F"/>
<stop offset="0.0001" stop-color="#FFAE1F"/>
<stop offset="1" stop-color="#FD5526"/>
</linearGradient>
<linearGradient id="paint23_linear_38_198" x1="324.104" y1="90.1273" x2="324.104" y2="101.366" gradientUnits="userSpaceOnUse">
<stop stop-color="#FFAE1F"/>
<stop offset="0.0001" stop-color="#FFAE1F"/>
<stop offset="1" stop-color="#FD5526"/>
</linearGradient>
<linearGradient id="paint24_linear_38_198" x1="330.628" y1="113.157" x2="330.628" y2="122.171" gradientUnits="userSpaceOnUse">
<stop stop-color="#FFAE1F"/>
<stop offset="0.0001" stop-color="#FFAE1F"/>
<stop offset="1" stop-color="#FD5526"/>
</linearGradient>
<clipPath id="clip0_38_198">
<rect width="543" height="232.924" fill="white"/>
</clipPath>
</defs>
</svg>
