<svg width="298" height="294" viewBox="0 0 298 294" fill="none" xmlns="http://www.w3.org/2000/svg">
<g filter="url(#filter0_f_38_353)">
<ellipse cx="149" cy="147" rx="39" ry="37" fill="url(#paint0_linear_38_353)"/>
</g>
<path d="M180.225 159.225C172.712 147.69 157.014 143.507 144.22 147.553C143.031 147.924 141.862 148.382 140.722 148.909C138.169 145.798 135.684 142.649 133.433 139.353C134.281 138.271 135.128 137.189 135.957 136.087C138.188 133.162 140.312 130.032 141.969 126.707C147.669 115.23 148.459 101.541 144.619 89.3817C141.667 80.0115 135.304 70.1439 132.926 66.6337C132.429 65.9024 131.406 65.7854 130.753 66.3802C128.814 68.1548 127.099 70.2512 125.774 72.445C123.163 76.8425 121.711 81.1913 120.736 86.0275C117.277 102.272 119.323 119.677 127.353 134.088C125.871 135.707 124.39 137.315 122.987 138.973C116.741 146.208 110.748 154.106 107.981 163.437C106.773 167.454 106.412 171.715 106.938 175.869C108.215 185.6 113.73 193.118 121.633 198.598C130.705 205.199 142.359 208.426 153.448 206.125C155.484 205.715 157.482 205.15 159.44 204.448C155.241 217.67 145.643 229.419 132.195 233.553C126.008 235.396 112.317 235.952 107.854 226.026C107.396 225.002 106.938 223.959 106.685 222.867C106.558 222.35 106.471 221.804 106.422 221.268C107.796 222.652 109.715 223.491 111.84 223.422C115.728 223.305 118.865 220.107 118.924 216.217C118.982 212.122 115.689 208.787 111.606 208.787C109.277 208.787 107.201 209.879 105.866 211.576C103.109 214.91 102.281 219.649 103.645 223.647C109.024 239.413 126.096 237.805 132.819 235.65C147.172 231.008 157.453 217.865 161.457 203.648C167.811 200.967 173.511 196.725 177.701 191.197C180.722 187.111 182.758 182.402 183.606 177.322C184.649 171.16 183.655 164.549 180.225 159.225ZM125.92 124.844C121.769 113.622 121.944 100.819 126.797 89.8595C127.245 88.8162 127.791 87.6851 128.327 86.6906L129.136 85.15C129.399 84.643 129.681 84.1554 129.974 83.6679C131.426 81.2693 133.024 79.1632 135.128 77.6323C135.908 79.0949 136.619 80.6062 137.262 82.1371C142.895 95.2126 143.431 110.999 135.937 123.392C134.027 126.551 131.601 129.398 129.087 132.177C127.859 129.837 126.787 127.409 125.92 124.844ZM148.537 204.721C139.094 205.628 129.711 201.64 123.026 195.068C116.916 189.364 113.447 181.71 114.061 173.324C114.247 170.623 114.88 168 115.874 165.494C119.489 156.446 125.793 148.909 131.942 141.216C134.096 144.199 136.424 147.056 138.812 149.884C135.138 151.961 131.971 154.935 130.139 158.815C127.538 164.227 128.444 171.345 132.955 175.45C134.047 176.435 135.392 177.195 136.785 177.575C137.457 177.761 138.208 177.546 138.675 176.971C139.367 176.142 139.172 174.894 138.305 174.28C137.34 173.48 136.668 172.525 136.23 171.462C134.963 168.322 135.45 164.568 137.642 161.965C139.114 160.141 141.121 158.806 143.294 157.811C143.85 157.567 144.424 157.333 144.999 157.129C149.569 162.55 153.935 168.098 157.18 174.416C159.392 178.706 161.068 183.338 161.574 188.145C161.759 189.939 161.779 191.743 161.623 193.527C161.389 196.179 160.941 198.832 160.278 201.454C156.595 203.239 152.59 204.37 148.537 204.721ZM175.216 186.965C172.439 192.669 167.791 197.301 162.276 200.421C162.909 197.584 163.328 194.688 163.436 191.782C163.523 187.979 162.851 184.167 161.672 180.569C158.641 171.442 153.019 163.856 147.016 156.504C153.292 154.788 160.347 155.266 166.174 157.987C170.851 160.18 174.768 163.739 176.503 168.751C178.578 174.65 177.838 181.29 175.216 186.965Z" fill="url(#paint1_linear_38_353)"/>
<defs>
<filter id="filter0_f_38_353" x="0" y="0" width="298" height="294" filterUnits="userSpaceOnUse" color-interpolation-filters="sRGB">
<feFlood flood-opacity="0" result="BackgroundImageFix"/>
<feBlend mode="normal" in="SourceGraphic" in2="BackgroundImageFix" result="shape"/>
<feGaussianBlur stdDeviation="55" result="effect1_foregroundBlur_38_353"/>
</filter>
<linearGradient id="paint0_linear_38_353" x1="149" y1="110" x2="149" y2="184" gradientUnits="userSpaceOnUse">
<stop stop-color="#FFAE1F"/>
<stop offset="0.0001" stop-color="#FFAE1F"/>
<stop offset="1" stop-color="#FD5526"/>
</linearGradient>
<linearGradient id="paint1_linear_38_353" x1="143.5" y1="66" x2="143.5" y2="237" gradientUnits="userSpaceOnUse">
<stop stop-color="#FFAE1F"/>
<stop offset="0.0001" stop-color="#FFAE1F"/>
<stop offset="1" stop-color="#FD5526"/>
</linearGradient>
</defs>
</svg>
