<svg width="1920" height="132" viewBox="0 0 1920 132" fill="none" xmlns="http://www.w3.org/2000/svg">
<path fill-rule="evenodd" clip-rule="evenodd" d="M376.026 66.5C377.9 68.2911 379.176 72.1863 380.49 76.1962C382.432 82.1252 384.457 88.3051 388.618 88.3051C393.104 88.3051 395.36 81.1254 397.342 74.8187C398.442 71.3172 399.457 68.0849 400.723 66.5H403.957C406.867 69.0423 409.066 75.9902 411.472 83.5933C415.345 95.8285 419.754 109.761 428.525 109.761C436.662 109.761 440.874 97.7697 444.915 86.2669C447.936 77.666 450.861 69.338 455.26 66.5H459.738C461.632 68.7098 463.089 74.215 464.678 80.223C467.313 90.1823 470.314 101.523 476.281 101.523C481.817 101.523 484.525 91.7633 487.124 82.4005C489.016 75.5823 490.849 68.9746 493.674 66.5H497.609C501.897 70.3863 503.437 85.1464 504.942 99.5703C506.605 115.505 508.225 131.029 513.459 131.029C518.317 131.029 519.819 117.66 521.465 103C523.198 87.563 525.092 70.6954 531.235 66.5H535.712C537.003 67.4429 538.124 68.8903 539.322 70.4349C541.957 73.8343 544.956 77.7046 550.922 77.7046C556.456 77.7046 559.219 74.3734 561.871 71.1775C563.375 69.3634 564.844 67.5929 566.763 66.5H1351.89C1353.29 67.4316 1354.49 68.9713 1355.77 70.622C1358.4 74.0214 1361.4 77.8917 1367.37 77.8917C1372.9 77.8917 1375.66 74.5605 1378.32 71.3646C1379.91 69.4429 1381.46 67.5702 1383.55 66.5H1387.65C1391.94 70.3863 1393.48 85.1464 1394.98 99.5703C1396.65 115.505 1398.27 131.029 1403.5 131.029C1408.36 131.029 1409.86 117.66 1411.51 103.001V103C1413.24 87.563 1415.13 70.6954 1421.28 66.5H1425.03C1426.9 68.2911 1428.18 72.1863 1429.49 76.1962C1431.43 82.1252 1433.46 88.3051 1437.62 88.3051C1442.1 88.3051 1444.36 81.1254 1446.34 74.8187C1447.44 71.3172 1448.46 68.0849 1449.72 66.5H1452.96C1455.87 69.0424 1458.07 75.9904 1460.47 83.5937C1464.34 95.8289 1468.75 109.761 1477.52 109.761C1485.66 109.761 1489.87 97.7697 1493.91 86.2669C1496.94 77.666 1499.86 69.338 1504.26 66.5H1508.74C1510.63 68.7098 1512.09 74.215 1513.68 80.223C1516.31 90.1823 1519.31 101.523 1525.28 101.523C1530.82 101.523 1533.53 91.7633 1536.12 82.4005C1538.02 75.5823 1539.85 68.9746 1542.67 66.5H1546.61C1550.9 70.3862 1552.44 85.1452 1553.94 99.5686L1553.94 99.5703C1555.6 115.505 1557.22 131.029 1562.46 131.029C1567.32 131.029 1568.82 117.66 1570.46 103C1572.2 87.563 1574.09 70.6954 1580.24 66.5H1584.71C1586 67.4429 1587.12 68.8903 1588.32 70.4349C1590.96 73.8343 1593.96 77.7046 1599.92 77.7046C1605.46 77.7046 1608.22 74.3734 1610.87 71.1775C1612.38 69.3634 1613.84 67.5929 1615.76 66.5H1920V65.5H1618.63C1619.06 65.4344 1619.52 65.3997 1620 65.3997C1615.66 65.3997 1613.31 62.5684 1610.87 59.622C1608.22 56.4261 1605.46 53.0949 1599.92 53.0949C1593.96 53.0949 1590.96 56.9652 1588.32 60.3646C1586.39 62.8524 1584.66 65.088 1582.1 65.3699C1574.45 63.5511 1572.36 44.9327 1570.46 28.0297C1568.82 13.3696 1567.32 0 1562.46 0C1557.22 0 1555.6 15.5244 1553.94 31.4591V31.4601C1552.25 47.7159 1550.51 64.3983 1544.84 65.4611C1540.71 65.0638 1538.46 56.9684 1536.12 48.5522C1533.53 39.1895 1530.82 29.4298 1525.28 29.4298C1519.31 29.4298 1516.31 40.7705 1513.68 50.7298C1511.67 58.3078 1509.88 65.0861 1507.15 65.4601C1501.05 65.0046 1497.55 55.0431 1493.91 44.6858C1489.87 33.183 1485.66 21.192 1477.52 21.192C1468.75 21.192 1464.34 35.1238 1460.47 47.359C1457.57 56.5317 1454.97 64.7508 1451.06 65.431C1449.11 64.9533 1447.8 60.7807 1446.34 56.1341C1444.36 49.8275 1442.1 42.6477 1437.62 42.6477C1433.46 42.6477 1431.43 48.8276 1429.49 54.7567C1427.82 59.8672 1426.2 64.7914 1423.33 65.411C1415.53 63.8548 1413.42 45.0705 1411.51 28.0297V28.0286C1409.86 13.369 1408.36 0 1403.5 0C1398.27 0 1396.65 15.5244 1394.98 31.4591V31.4604C1393.29 47.6985 1391.55 64.3622 1385.9 65.4576C1382.52 64.8719 1380.45 62.3845 1378.32 59.8092C1375.66 56.6132 1372.9 53.282 1367.37 53.282C1361.4 53.282 1358.4 57.1523 1355.77 60.5517C1353.94 62.9147 1352.28 65.0501 1349.93 65.5H569.631C570.065 65.4344 570.52 65.3997 571 65.3997C566.663 65.3997 564.315 62.5684 561.871 59.622C559.219 56.4261 556.456 53.0949 550.922 53.0949C544.956 53.0949 541.957 56.9652 539.322 60.3646C537.393 62.8524 535.661 65.088 533.104 65.3699C525.453 63.5511 523.363 44.9327 521.465 28.0297C519.819 13.3696 518.317 0 513.459 0C508.225 0 506.605 15.5242 504.942 31.4587C503.246 47.7149 501.506 64.3983 495.837 65.4611C491.706 65.0638 489.459 56.9684 487.124 48.5522C484.525 39.1895 481.817 29.4298 476.281 29.4298C470.314 29.4298 467.313 40.7705 464.678 50.7298C462.673 58.3076 460.88 65.0861 458.152 65.4601C452.052 65.0046 448.553 55.0431 444.915 44.6858C440.874 33.183 436.662 21.192 428.525 21.192C419.754 21.192 415.345 35.1238 411.472 47.359C408.569 56.5316 405.968 64.7508 402.057 65.431C400.113 64.9533 398.802 60.7807 397.342 56.1341C395.36 49.8275 393.104 42.6477 388.618 42.6477C384.457 42.6477 382.432 48.8276 380.49 54.7567C378.816 59.8672 377.203 64.7914 374.334 65.411C366.53 63.8548 364.421 45.0705 362.507 28.0297C360.861 13.3696 359.36 0 354.502 0C349.267 0 347.647 15.5244 345.985 31.4591C344.29 47.6976 342.552 64.3621 336.897 65.4576C333.516 64.8719 331.452 62.3845 329.316 59.8092C326.665 56.6132 323.901 53.282 318.367 53.282C312.402 53.282 309.402 57.1523 306.767 60.5517C304.936 62.9147 303.28 65.0501 300.928 65.5H0V66.5H302.889C304.294 67.4316 305.488 68.9713 306.767 70.622C309.402 74.0214 312.402 77.8917 318.367 77.8917C323.901 77.8917 326.665 74.5605 329.316 71.3646C330.91 69.4429 332.464 67.5702 334.555 66.5H338.652C342.94 70.3863 344.48 85.1464 345.985 99.5703C347.647 115.505 349.267 131.029 354.502 131.029C359.36 131.029 360.861 117.66 362.507 103C364.24 87.563 366.134 70.6954 372.277 66.5H376.026ZM458.063 65.5H458.201C458.185 65.4973 458.169 65.4948 458.152 65.4926C458.122 65.4948 458.092 65.4973 458.063 65.5ZM1507.06 65.5H1507.2C1507.18 65.4973 1507.17 65.4948 1507.15 65.4926C1507.12 65.4948 1507.09 65.4973 1507.06 65.5Z" fill="#1B1C40"/>
</svg>
